#!OML:ASF F:\VICON\USERDATA\INSTALL\rory3\rory3.ASF
:FULLY-SPECIFIED
:DEGREES
59
root 0.24488667828133454 17.892921604180103 34.36103522872819 -4.353270159427784 -3.4254345761411917 -1.0579788241170298
lfemur -10.930416753384762 -7.027529514667648 -16.038700824311352
ltibia 10.615853315911746
lfoot -8.216352205907565 -1.6832785238340997
ltoes -1.0026128294805305
rfemur -11.98865850751492 4.890679520375154 18.575222144519387
rtibia 56.730966543218884
rfoot 14.407610540612694 -14.605101154562412
rtoes 24.067475172489676
lowerback nan 1.0836889968916994 -0.45380724070645373
upperback 0.7585819732504119 2.23393859878854 0.06086394126059491
thorax -4.516119148099126 1.3157899484292637 1.0906216598989467
lowerneck -16.11438410875042 -2.722390310315814 -2.0587459716106347
upperneck 20.15126648874228 -3.7209414266969865 1.2896148582573175
head 8.949786293959555 -1.8076112642780258 0.2918073244378838
lclavicle -6.679573297015183e-15 2.1618269846571233e-14
lhumerus -36.03794992876067 6.919606379567505 80.7445072479388
lradius 24.075757374847516
lwrist 5.4992587870493175
lhand -27.145632032842123 24.869038958727188
lfingers nan
lthumb -1.0583937216791632 54.030720907563165
rclavicle -7.59758315308307e-15 2.153330578812306e-14
rhumerus -30.225473356544082 -22.143388922212154 -78.02519310919918
rradius 25.279797787285084
rwrist 7.356424649033142
rhand -17.726411260738963 nan
rfingers nan
rthumb 8.608618433566672 -5.800247108061435
60
root 0.24569838547688724 17.892930568786696 35.31457222815115 -4.400429527100855 -2.7675879309536806 -0.5912422786391605
lfemur -9.176596425534493 -7.084413469823396 -16.46034383615366
ltibia 11.610471796714084
lfoot -10.857881478178511 -1.3654331027734536
ltoes -1.7740819656259674
rfemur -17.016796865694737 4.483862313896053 18.166088084512655
rtibia 61.139619266018975
rfoot 6.118380479370128 -17.872300270004317
rtoes 18.951410252979127
lowerback nan 0.6900837423406483 -1.3527863837721268
upperback 0.8391545164485307 1.6829240347902288 0.20531953840565564
thorax -4.525423610126845 1.049910250381957 1.6260762473206007
lowerneck -15.860191696135676 -2.5793509942906474 -2.2375821407104683
upperneck 20.026013563708695 -3.429241726341005 1.17322192657267
head 8.869320285325543 -1.7236808420526784 0.3111150876058926
lclavicle 3.990991522679592e-16 3.405329858783805e-15
lhumerus -34.44847697526082 6.779414952419337 80.75124070928409
lradius 24.470323421186503
lwrist 4.608452296239328
lhand -28.207524640711746 23.4342550439987
lfingers nan
lthumb -2.0553520075097205 52.662968451109435
rclavicle 3.8699732889258155e-16 4.1306424224668075e-15
rhumerus -30.288734353614736 -22.95287630770553 -77.6445079576488
rradius 24.567391732966982
rwrist 10.463596957463881
rhand -17.725648813176342 nan
rfingers nan
rthumb 8.61221206465086 -5.18302593602481
61
root 0.24549038171144671 17.87733051283052 35.65641052911933 -4.349092108603755 -1.7571977114746042 0.14278791605995922
lfemur -7.485827386780148 -6.813643399604299 -17.318802902088404
ltibia 12.073234941454032
lfoot -12.970429567657565 -1.8926155849113284
ltoes -3.417297191336912
rfemur -21.310308880769718 3.4787856170620297 17.057757640417698
rtibia 62.31102602740863
rfoot 1.3664418842021355 -19.318503932974743
rtoes 18.628934850270426
lowerback nan 0.09152017004433577 -2.488244498763927
upperback 1.0071931553874012 0.9316448831712187 0.17617955157095833
thorax -4.300195395691371 0.6566574499446107 2.245567598027939
lowerneck -15.782048015695889 -2.507334634230073 -2.1593987493998936
upperneck 20.04787141336778 -3.25680086171974 0.9650041713710017
head 8.857120235517481 -1.6849418020992464 0.24889225743731513
lclavicle -1.4112249561581084e-14 1.877497690688533e-15
lhumerus -32.85713564062784 5.662111289782314 81.00240298765948
lradius 26.0095155962812
lwrist 5.578221869797963
lhand -24.7403689450725 29.748973147244897
lfingers nan
lthumb 1.2900789422331271 58.916464299381914
rclavicle -1.4119885943392909e-14 2.5873577480074185e-15
rhumerus -30.442087643337423 -22.686835789928192 -77.77423577454029
rradius 24.724892945752643
rwrist 9.538808951857405
rhand -17.361082270767024 nan
rfingers nan
rthumb 8.985718835951626 -2.810244599801007
62
root 0.22313588619933705 17.842535832906318 36.5840182294403 -4.01058124814826 -1.189275364015502 -0.024908722476060685
lfemur -6.737738359006103 -6.934193298497341 -16.993682711646297
ltibia 13.505264697599355
lfoot -14.81984306943735 -1.8189909055680569
ltoes -4.874579114746979
rfemur -25.501766161802152 3.0609875050323376 17.65682196860279
rtibia 60.641210538351615
rfoot -3.5012846998305935 -20.586863521815033
rtoes 14.592483587340318
lowerback nan -0.347930571513411 -2.429570619061888
upperback 0.8991593639034487 0.4193454242715944 0.5413178530962501
thorax -4.688682999108455 0.3952229133701479 2.471054563417122
lowerneck -15.85375007544538 -2.443242126132737 -2.195399736244587
upperneck 20.085137052441603 -3.1050615421877055 0.9074530060908652
head 8.864291400243248 -1.6457203488625383 0.2456058367459164
lclavicle 3.5822050938775854e-15 6.88643921806995e-15
lhumerus -30.98691695970876 4.310070742826703 81.37217168855948
lradius 27.73553936511877
lwrist 5.693773289963567
lhand -21.81752244250907 34.94790069757707
lfingers nan
lthumb 4.168203870595667 64.30749240734642
rclavicle 3.2954064779836963e-15 7.45865445321854e-15
rhumerus -30.60681709120586 -22.2790690374783 -77.93160821640673
rradius 25.335131505860097
rwrist 8.141571315168816
rhand -17.711588602322998 nan
rfingers nan
rthumb 8.653113102615047 -2.852577354579113
63
root 0.21208521459395993 17.779836053658258 37.48813976865017 -3.72645904310141 -0.7295485927225982 0.5092460471161
lfemur -6.021407400241914 -7.1504081944598035 -17.34452446432346
ltibia 14.980071139914092
lfoot -17.4728730096201 -1.3414959059904883
ltoes -1.1471700696389502
rfemur -28.602753832176827 2.6636373656508354 17.331877549780877
rtibia 56.20162614649869
rfoot -7.323757276737488 -21.687670295731543
rtoes 9.300836245140887
lowerback nan -0.66012507797633 -3.564606890470732
upperback 0.886240150600806 -0.029219912369378598 0.7578748056150212
thorax -4.895211757239303 0.14610440009559938 3.295296959360245
lowerneck -15.664736593238363 -2.3993293985725677 -2.2260713720613823
upperneck 19.825613399125785 -3.006736657325762 0.920932918000286
head 8.726370492674835 -1.6225140194745062 0.2630913174697038
lclavicle -1.0012378557862866e-14 1.3714639669206662e-14
lhumerus -29.008368396593983 2.719023352584822 82.02063822212473
lradius 27.610500524077874
lwrist 5.584613119027874
lhand -26.56686598872008 27.066500477613097
lfingers nan
lthumb -0.30028073615654444 56.663744286741846
rclavicle -1.0144512339041862e-14 1.4649797844078204e-14
rhumerus -30.43458831335773 -20.64689214324046 -78.58713087818354
rradius 26.393380600089433
rwrist 6.094924573402833
rhand -17.469611766075552 nan
rfingers nan
rthumb 8.905921782565773 -6.085520876508022
